<?xml version="1.0" encoding="utf-8"?>
<!-- Generator: Adobe Illustrator 16.0.0, SVG Export Plug-In . SVG Version: 6.00 Build 0)  -->
<!DOCTYPE svg PUBLIC "-//W3C//DTD SVG 1.1//EN" "http://www.w3.org/Graphics/SVG/1.1/DTD/svg11.dtd">
<svg version="1.1" id="Layer_1" xmlns="http://www.w3.org/2000/svg" xmlns:xlink="http://www.w3.org/1999/xlink" x="0px" y="0px"
	 width="20px" height="16px" viewBox="0 0 20 16" enable-background="new 0 0 20 16" xml:space="preserve">
<g>
	<path fill="#FFFFFF" d="M8.739,13.716c-0.145,0-0.288-0.046-0.403-0.136L0.227,7.296C0.086,7.188,0.006,7.028,0.006,6.86
		s0.08-0.328,0.221-0.436l8.109-6.285c0.186-0.144,0.445-0.176,0.666-0.083s0.361,0.296,0.361,0.519v4
		c0,0.315-0.279,0.571-0.624,0.571s-0.519-0.285-0.519-0.6V1.683L1.596,6.86l6.625,5.131V9.127c0-0.315,0.174-0.553,0.519-0.553
		S9.363,8.83,9.363,9.146v3.999c0,0.223-0.141,0.425-0.361,0.519C8.918,13.699,8.828,13.716,8.739,13.716z"/>
	<path fill="#FFFFFF" d="M19.344,16.001c-0.006,0-0.013,0-0.02,0c-0.338-0.01-0.605-0.265-0.604-0.573
		c0-0.02-0.029-2.147-1.928-3.78c-1.722-1.479-4.418-2.129-8.016-1.933C8.425,9.736,8.137,9.494,8.117,9.18
		C8.096,8.864,8.358,8.594,8.702,8.575c3.968-0.218,6.983,0.54,8.964,2.257c0.278,0.24,0.522,0.489,0.738,0.74
		c-0.393-1.479-1.113-2.721-2.16-3.717c-2.907-2.765-7.42-2.71-7.463-2.71c-0.35,0.026-0.629-0.243-0.637-0.558
		C8.137,4.272,8.408,4.011,8.752,4.003c0.21-0.005,5.088-0.073,8.382,3.051c2.109,2,3.063,4.83,2.833,8.408
		C19.947,15.767,19.673,16.001,19.344,16.001z"/>
</g>
</svg>
