<?xml version="1.0" encoding="utf-8"?>
<!-- Generator: Adobe Illustrator 16.0.0, SVG Export Plug-In . SVG Version: 6.00 Build 0)  -->
<!DOCTYPE svg PUBLIC "-//W3C//DTD SVG 1.1//EN" "http://www.w3.org/Graphics/SVG/1.1/DTD/svg11.dtd">
<svg version="1.1" id="Layer_2" xmlns="http://www.w3.org/2000/svg" xmlns:xlink="http://www.w3.org/1999/xlink" x="0px" y="0px"
	 width="11px" height="18px" viewBox="0 0 11 18" enable-background="new 0 0 11 18" xml:space="preserve">
<path fill-rule="evenodd" clip-rule="evenodd" fill="#FFFFFF" d="M10.73,8.354l-5.754,9.134c-0.096,0.305-0.359,0.521-0.67,0.521
	c-0.029,0-0.059-0.002-0.09-0.006c-0.332-0.043-0.57-0.32-0.611-0.652c-0.004-0.021,0-0.041-0.004-0.062
	c-0.002-0.041-0.014-0.079-0.008-0.121l0.006-0.07c0.002-0.021,0.002-0.041,0.006-0.062l0.566-5.799H0.646
	c-0.52,0-0.412-0.267-0.502-0.444c-0.256-0.502,0.061-0.986,0.162-1.146L7.299,0.29c0.242-0.326,0.693-0.385,1.006-0.13
	C8.477,0.3,8.563,0.504,8.572,0.714c0.014,0.094,0.012,0.191-0.012,0.289L7.697,6.714h2.82c0.518,0,0.299,0.351,0.387,0.522
	C11.145,7.705,10.875,8.127,10.73,8.354z M6.992,8.223c-0.322,0-0.717-0.096-0.936-0.365C5.803,7.544,5.688,7.096,5.754,6.686
	L6.4,3.927L2.031,9.772h2.582c0.402,0,0.713,0.132,0.926,0.391c0.111,0.139,0.289,0.438,0.217,0.902l-0.357,3.03l3.709-5.873H6.992z
	"/>
</svg>
