<?xml version="1.0" encoding="utf-8"?>
<!-- Generator: Adobe Illustrator 16.0.0, SVG Export Plug-In . SVG Version: 6.00 Build 0)  -->
<!DOCTYPE svg PUBLIC "-//W3C//DTD SVG 1.1//EN" "http://www.w3.org/Graphics/SVG/1.1/DTD/svg11.dtd">
<svg version="1.1" id="Layer_1" xmlns="http://www.w3.org/2000/svg" xmlns:xlink="http://www.w3.org/1999/xlink" x="0px" y="0px"
	 width="15px" height="15px" viewBox="0 0 15 15" enable-background="new 0 0 15 15" xml:space="preserve">
<path fill="#FFFFFF" d="M13.929,6.429c-2.954,0-5.357-2.403-5.357-5.357C8.571,0.479,8.092,0,7.5,0C3.364,0,0,3.364,0,7.5
	S3.364,15,7.5,15S15,11.636,15,7.5C15,6.908,14.521,6.429,13.929,6.429z M7.503,13.39c-3.249,0-5.893-2.644-5.893-5.893
	c0-2.881,2.077-5.285,4.813-5.794c0.551,3.527,3.345,6.322,6.873,6.873C12.788,11.313,10.384,13.39,7.503,13.39z"/>
</svg>
