<?xml version="1.0" encoding="utf-8"?>
<!-- Generator: Adobe Illustrator 16.0.0, SVG Export Plug-In . SVG Version: 6.00 Build 0)  -->
<!DOCTYPE svg PUBLIC "-//W3C//DTD SVG 1.1//EN" "http://www.w3.org/Graphics/SVG/1.1/DTD/svg11.dtd">
<svg version="1.1" id="Layer_1" xmlns="http://www.w3.org/2000/svg" xmlns:xlink="http://www.w3.org/1999/xlink" x="0px" y="0px"
	 width="18px" height="18px" viewBox="0 0 22 22" enable-background="new 0 0 22 22" xml:space="preserve">
<path fill="#FFFFFF" d="M16.983,5.863c0.216,0,0.433-0.083,0.598-0.248l1.197-1.197c0.33-0.33,0.33-0.866,0-1.196
	c-0.331-0.331-0.866-0.331-1.196,0l-1.197,1.196c-0.33,0.331-0.33,0.866,0,1.197C16.55,5.78,16.767,5.863,16.983,5.863z M3.385,11
	c0-0.468-0.379-0.847-0.847-0.847H0.846C0.379,10.153,0,10.532,0,11c0,0.467,0.379,0.846,0.846,0.846h1.692
	C3.006,11.846,3.385,11.467,3.385,11z M4.418,16.385l-1.196,1.196c-0.33,0.331-0.33,0.866,0,1.197
	c0.165,0.165,0.382,0.248,0.599,0.248c0.216,0,0.433-0.083,0.598-0.248l1.197-1.197c0.33-0.33,0.33-0.866,0-1.196
	S4.749,16.055,4.418,16.385z M4.418,5.615C4.584,5.78,4.801,5.863,5.017,5.863c0.217,0,0.434-0.083,0.599-0.248
	c0.33-0.331,0.33-0.866,0-1.197L4.418,3.222c-0.33-0.331-0.866-0.331-1.196,0c-0.33,0.33-0.33,0.866,0,1.196L4.418,5.615z M11,3.385
	c0.467,0,0.846-0.379,0.846-0.847V0.846C11.846,0.379,11.467,0,11,0c-0.468,0-0.847,0.379-0.847,0.846v1.692
	C10.153,3.006,10.532,3.385,11,3.385z M21.153,10.153h-1.691c-0.468,0-0.847,0.379-0.847,0.847c0,0.467,0.379,0.846,0.847,0.846
	h1.691C21.621,11.846,22,11.467,22,11C22,10.532,21.621,10.153,21.153,10.153z M17.581,16.385c-0.33-0.33-0.866-0.33-1.196,0
	s-0.33,0.866,0,1.196l1.197,1.197c0.164,0.165,0.381,0.248,0.598,0.248s0.434-0.083,0.599-0.248c0.33-0.331,0.33-0.866,0-1.197
	L17.581,16.385z M11,18.615c-0.468,0-0.847,0.379-0.847,0.846v1.692C10.153,21.621,10.532,22,11,22c0.467,0,0.846-0.379,0.846-0.847
	v-1.692C11.846,18.994,11.467,18.615,11,18.615z M11,5.077c-3.266,0-5.923,2.656-5.923,5.923c0,3.266,2.657,5.923,5.923,5.923
	s5.923-2.657,5.923-5.923C16.923,7.733,14.266,5.077,11,5.077z M11,15.23c-2.333,0-4.23-1.897-4.23-4.23S8.667,6.77,11,6.77
	s4.23,1.897,4.23,4.23S13.333,15.23,11,15.23z"/>
</svg>
